<?xml version="1.0" encoding="UTF-8" standalone="no"?>
<svg id="logo" viewBox="0 0 500 250" version="1.1" xmlns="http://www.w3.org/2000/svg" xmlns:xlink="http://www.w3.org/1999/xlink" xml:space="preserve" xmlns:serif="http://www.serif.com/" style="fill-rule:evenodd;clip-rule:evenodd;stroke-linecap:round;stroke-linejoin:round;stroke-miterlimit:1.5;">
    <g transform="matrix(0.740593,0,0,0.744317,-0.214904,-48.788)">
        <g transform="matrix(1,0,0,1,-16.6522,36.2151)">
            <path d="M143.302,130L54.551,204.869" style="fill:none;stroke-width:51.18px;"/>
        </g>
        <g transform="matrix(0.294066,0.955785,-0.955785,0.294066,217.668,133.568)">
            <path d="M141.979,142.194L49.898,203.437" style="fill:none;stroke-width:51.11px;"/>
        </g>
    </g>
    <g transform="matrix(0.740593,0,0,0.744317,145.673,-48.788)">
        <g transform="matrix(-1,0,0,1,495.379,36.2151)">
            <path d="M143.302,130L54.551,204.869" style="fill:none;stroke-width:51.18px;"/>
        </g>
        <g transform="matrix(-0.294066,0.955785,0.955785,0.294066,261.059,133.568)">
            <path d="M141.979,142.194L49.898,203.437" style="fill:none;stroke-width:51.11px;"/>
        </g>
    </g>
    <g transform="matrix(-0.206559,-0.985841,-0.754486,0.55413,489.306,133.596)">
        <path d="M143.302,130L54.551,204.869" style="fill:none;stroke-width:51.01px;"/>
    </g>
    <g transform="matrix(0.721227,0,0,0.724854,60.3533,-56.3673)">
        <path d="M136.349,243.501C136.349,243.501 148.895,145.916 227.392,147.207C305.89,148.499 280.383,239.585 269.029,261.863C257.676,284.142 258.372,320.826 256.859,328.994C255.347,337.162 238.627,370.552 182.877,341.697C127.127,312.842 136.349,243.501 136.349,243.501Z" style="stroke-width:52.56px;"/>
    </g>
</svg>
