<svg width="64" height="64" viewBox="0 0 64 64" fill="none" xmlns="http://www.w3.org/2000/svg">
<path d="M20.6112 26.5538C20.9487 24.6505 22.7653 23.3812 24.6686 23.7187L31.561 24.9411C31.6572 24.9582 31.7517 24.979 31.8445 25.0034C31.896 25.0011 31.9479 25 32 25C32.0521 25 32.104 25.0011 32.1556 25.0034C32.2483 24.979 32.3428 24.9582 32.439 24.9411L39.3314 23.7187C41.2347 23.3812 43.0513 24.6505 43.3888 26.5538C43.7264 28.4571 42.4571 30.2736 40.5538 30.6112L35.5 31.5075V37.6005L41.4749 43.5754C42.8417 44.9422 42.8417 47.1583 41.4749 48.5251C40.108 49.892 37.892 49.892 36.5251 48.5251L32 44L27.4749 48.5251C26.108 49.892 23.892 49.892 22.5251 48.5251C21.1583 47.1583 21.1583 44.9422 22.5251 43.5754L28.5 37.6005V31.5075L23.4462 30.6112C21.5429 30.2736 20.2736 28.4571 20.6112 26.5538Z" fill="black"/>
<path d="M35.5 19.5C35.5 21.433 33.933 23 32 23C30.067 23 28.5 21.433 28.5 19.5C28.5 17.567 30.067 16 32 16C33.933 16 35.5 17.567 35.5 19.5Z" fill="black"/>
<path d="M32 60C47.464 60 60 47.464 60 32C60 16.536 47.464 4 32 4C16.536 4 4 16.536 4 32C4 47.464 16.536 60 32 60ZM32 53C20.402 53 11 43.598 11 32C11 20.402 20.402 11 32 11C43.598 11 53 20.402 53 32C53 43.598 43.598 53 32 53Z" fill="black"/>
</svg>
