<svg width="64" height="64" viewBox="0 0 64 64" fill="none" xmlns="http://www.w3.org/2000/svg">
<path d="M46.6772 25.2545C47.9223 23.7759 47.733 21.5679 46.2545 20.3228C44.7759 19.0777 42.5679 19.267 41.3228 20.7455L46.6772 25.2545ZM28 42L25.5428 44.4924C26.2378 45.1776 27.1872 45.5414 28.162 45.4962C29.1369 45.4511 30.0486 45.0009 30.6772 44.2545L28 42ZM22.4572 31.6208C21.0806 30.2637 18.8646 30.2795 17.5076 31.656C16.1505 33.0326 16.1663 35.2486 17.5428 36.6057L22.4572 31.6208ZM41.3228 20.7455L25.3228 39.7455L30.6772 44.2545L46.6772 25.2545L41.3228 20.7455ZM17.5428 36.6057L25.5428 44.4924L30.4572 39.5076L22.4572 31.6208L17.5428 36.6057Z" fill="black"/>
</svg>
