<svg width="64" height="64" viewBox="0 0 64 64" fill="none" xmlns="http://www.w3.org/2000/svg">
<path d="M52.6964 20.2315C53.9288 18.7423 53.7207 16.536 52.2315 15.3036C50.7423 14.0712 48.536 14.2793 47.3036 15.7685L52.6964 20.2315ZM26 47L23.5212 49.471C24.2176 50.1696 25.1765 50.5419 26.1618 50.4963C27.1471 50.4507 28.0675 49.9914 28.6964 49.2315L26 47ZM16.4788 32.4913C15.1141 31.1223 12.898 31.1188 11.529 32.4835C10.16 33.8482 10.1566 36.0643 11.5212 37.4332L16.4788 32.4913ZM47.3036 15.7685L23.3036 44.7685L28.6964 49.2315L52.6964 20.2315L47.3036 15.7685ZM11.5212 37.4332L23.5212 49.471L28.4788 44.529L16.4788 32.4913L11.5212 37.4332Z" fill="black"/>
</svg>
