<svg width="64" height="64" viewBox="0 0 64 64" fill="none" xmlns="http://www.w3.org/2000/svg">
<path d="M45.6772 26.2545C46.9223 24.7759 46.733 22.5679 45.2545 21.3228C43.7759 20.0777 41.5679 20.267 40.3228 21.7455L26.7613 37.8498L21.4572 32.6208C20.0806 31.2637 17.8646 31.2795 16.5076 32.656C15.1505 34.0326 15.1663 36.2486 16.5428 37.6057L24.5428 45.4924C25.2378 46.1776 26.1872 46.5414 27.162 46.4962C28.1369 46.4511 29.0486 46.0009 29.6772 45.2545L45.6772 26.2545Z" fill="black"/>
<path d="M60 32C60 47.464 47.464 60 32 60C16.536 60 4 47.464 4 32C4 16.536 16.536 4 32 4C47.464 4 60 16.536 60 32ZM53 32C53 20.402 43.598 11 32 11C20.402 11 11 20.402 11 32C11 43.598 20.402 53 32 53C43.598 53 53 43.598 53 32Z" fill="black"/>
</svg>
