<svg width="64" height="64" viewBox="0 0 64 64" fill="none" xmlns="http://www.w3.org/2000/svg">
<path d="M16.3036 48.2315C17.536 49.7207 19.7423 49.9288 21.2315 48.6964C22.7207 47.464 22.9288 45.2577 21.6964 43.7685L16.3036 48.2315ZM7.52764 32.1376L4.83126 34.3691L4.83126 34.3691L7.52764 32.1376ZM7.52764 30.8624L10.224 33.0939L10.224 33.0939L7.52764 30.8624ZM21.6964 19.2315C22.9288 17.7423 22.7207 15.536 21.2315 14.3036C19.7423 13.0712 17.536 13.2793 16.3036 14.7685L21.6964 19.2315ZM21.6964 43.7685L10.224 29.9061L4.83126 34.3691L16.3036 48.2315L21.6964 43.7685ZM10.224 33.0939L21.6964 19.2315L16.3036 14.7685L4.83126 28.6309L10.224 33.0939ZM10.224 29.9061C10.9894 30.8309 10.9894 32.1691 10.224 33.0939L4.83126 28.6309C3.45362 30.2956 3.45363 32.7044 4.83126 34.3691L10.224 29.9061Z" fill="black"/>
<path d="M47.6964 48.2315C46.464 49.7207 44.2577 49.9288 42.7685 48.6964C41.2793 47.464 41.0712 45.2577 42.3036 43.7685L47.6964 48.2315ZM56.4724 32.1376L59.1687 34.3691L59.1687 34.3691L56.4724 32.1376ZM56.4724 30.8624L53.776 33.0939L53.776 33.0939L56.4724 30.8624ZM42.3036 19.2315C41.0712 17.7423 41.2793 15.536 42.7685 14.3036C44.2577 13.0712 46.464 13.2793 47.6964 14.7685L42.3036 19.2315ZM42.3036 43.7685L53.776 29.9061L59.1687 34.3691L47.6964 48.2315L42.3036 43.7685ZM53.776 33.0939L42.3036 19.2315L47.6964 14.7685L59.1687 28.6309L53.776 33.0939ZM53.776 29.9061C53.0106 30.8309 53.0106 32.1691 53.776 33.0939L59.1687 28.6309C60.5464 30.2956 60.5464 32.7044 59.1687 34.3691L53.776 29.9061Z" fill="black"/>
<path d="M39.412 14.7799C39.8427 12.8955 38.6643 11.0187 36.7799 10.588C34.8955 10.1573 33.0187 11.3357 32.588 13.2201L39.412 14.7799ZM24.588 48.2201C24.1573 50.1045 25.3357 51.9813 27.2201 52.412C29.1045 52.8427 30.9813 51.6643 31.412 49.7799L24.588 48.2201ZM32.588 13.2201L24.588 48.2201L31.412 49.7799L39.412 14.7799L32.588 13.2201Z" fill="black"/>
</svg>
