<svg width="64" height="64" viewBox="0 0 64 64" fill="none" xmlns="http://www.w3.org/2000/svg">
<path d="M11 41C11 39.067 9.433 37.5 7.5 37.5C5.567 37.5 4 39.067 4 41H11ZM60 41C60 39.067 58.433 37.5 56.5 37.5C54.567 37.5 53 39.067 53 41H60ZM36 10.5C36 8.567 34.433 7 32.5 7C30.567 7 29 8.567 29 10.5H36ZM32.5 46L30.1184 48.5648C31.4613 49.8117 33.5387 49.8117 34.8816 48.5648L32.5 46ZM48.8816 35.5648C50.2981 34.2495 50.3801 32.0349 49.0648 30.6184C47.7495 29.2019 45.5349 29.1199 44.1184 30.4352L48.8816 35.5648ZM20.8816 30.4352C19.4651 29.1199 17.2505 29.2019 15.9352 30.6184C14.6199 32.0349 14.7019 34.2495 16.1184 35.5648L20.8816 30.4352ZM4 41V51.5H11V41H4ZM12.5 60H51.5V53H12.5V60ZM60 51.5V41H53V51.5H60ZM29 10.5V46H36V10.5H29ZM34.8816 48.5648L48.8816 35.5648L44.1184 30.4352L30.1184 43.4352L34.8816 48.5648ZM34.8816 43.4352L20.8816 30.4352L16.1184 35.5648L30.1184 48.5648L34.8816 43.4352ZM51.5 60C56.1944 60 60 56.1944 60 51.5H53C53 52.3284 52.3284 53 51.5 53V60ZM4 51.5C4 56.1944 7.80558 60 12.5 60V53C11.6716 53 11 52.3284 11 51.5H4Z" fill="black"/>
</svg>
