<svg width="64" height="64" viewBox="0 0 64 64" fill="none" xmlns="http://www.w3.org/2000/svg">
<path d="M58.8955 23.5518C60.3048 22.2287 60.3748 20.0138 59.0518 18.6045C57.7287 17.1952 55.5138 17.1252 54.1045 18.4482L58.8955 23.5518ZM32 44L29.6045 46.5518C30.9513 47.8161 33.0487 47.8161 34.3955 46.5518L32 44ZM9.89553 18.4482C8.48623 17.1252 6.27126 17.1952 4.94824 18.6045C3.62523 20.0138 3.69518 22.2287 5.10447 23.5518L9.89553 18.4482ZM54.1045 18.4482L29.6045 41.4482L34.3955 46.5518L58.8955 23.5518L54.1045 18.4482ZM5.10447 23.5518L29.6045 46.5518L34.3955 41.4482L9.89553 18.4482L5.10447 23.5518Z" fill="black"/>
</svg>
