<svg width="64" height="64" viewBox="0 0 64 64" fill="none" xmlns="http://www.w3.org/2000/svg">
<path d="M36 45.5C36 47.433 34.433 49 32.5 49C30.567 49 29 47.433 29 45.5C29 43.567 30.567 42 32.5 42C34.433 42 36 43.567 36 45.5Z" fill="black"/>
<path d="M36 18.5C36 16.567 34.433 15 32.5 15C30.567 15 29 16.567 29 18.5V35.5C29 37.433 30.567 39 32.5 39C34.433 39 36 37.433 36 35.5V18.5Z" fill="black"/>
<path d="M32 60C47.464 60 60 47.464 60 32C60 16.536 47.464 4 32 4C16.536 4 4 16.536 4 32C4 47.464 16.536 60 32 60ZM32 53C20.402 53 11 43.598 11 32C11 20.402 20.402 11 32 11C43.598 11 53 20.402 53 32C53 43.598 43.598 53 32 53Z" fill="black"/>
</svg>
