<svg width="64" height="64" viewBox="0 0 64 64" fill="none" xmlns="http://www.w3.org/2000/svg">
<path d="M40.4482 58.8955C41.7713 60.3048 43.9862 60.3748 45.3955 59.0518C46.8048 57.7287 46.8748 55.5138 45.5518 54.1045L40.4482 58.8955ZM20 32L17.4482 29.6045C16.1839 30.9513 16.1839 33.0487 17.4482 34.3955L20 32ZM45.5518 9.89553C46.8748 8.48623 46.8048 6.27126 45.3955 4.94824C43.9862 3.62523 41.7713 3.69518 40.4482 5.10447L45.5518 9.89553ZM45.5518 54.1045L22.5518 29.6045L17.4482 34.3955L40.4482 58.8955L45.5518 54.1045ZM40.4482 5.10447L17.4482 29.6045L22.5518 34.3955L45.5518 9.89553L40.4482 5.10447Z" fill="black"/>
</svg>
