<svg width="64" height="64" viewBox="0 0 64 64" fill="none" xmlns="http://www.w3.org/2000/svg">
<path d="M35.5 37C35.5 35.067 33.933 33.5 32 33.5C30.067 33.5 28.5 35.067 28.5 37V44C28.5 45.933 30.067 47.5 32 47.5C33.933 47.5 35.5 45.933 35.5 44V37Z" fill="black"/>
<path d="M20.6242 10C19.2478 12.0742 18.5 14.5 18.5 17V22H16C11.5817 22 8 25.5817 8 30V52C8 56.4183 11.5817 60 16 60H48C52.4183 60 56 56.4183 56 52V30C56 25.5817 52.4183 22 48 22H45.5V17C45.5 14.5 44.7522 12.0742 43.3758 10C42.854 9.21364 42.2419 8.4778 41.5459 7.80761C41.4837 7.74771 41.421 7.68845 41.3577 7.62985C38.8454 5.30316 35.4925 4 32 4C28.5076 4 25.1546 5.30316 22.6423 7.62984C22.579 7.68845 22.5163 7.74771 22.4541 7.80761C21.7581 8.4778 21.146 9.21364 20.6242 10ZM25.5 17L25.4915 17C25.4915 15.4227 26.109 13.9067 27.215 12.7516C27.2745 12.6894 27.3355 12.6283 27.3978 12.5683C28.6184 11.3929 30.2738 10.7326 32 10.7326C33.7262 10.7326 35.3816 11.3929 36.6022 12.5683C36.6645 12.6283 36.7255 12.6894 36.785 12.7516C37.891 13.9067 38.5085 15.4227 38.5085 17H38.5V22H25.5V17ZM48 29C48.5523 29 49 29.4477 49 30V52C49 52.5523 48.5523 53 48 53H16C15.4477 53 15 52.5523 15 52V30C15 29.4477 15.4477 29 16 29H48Z" fill="black"/>
</svg>
