<svg width="64" height="64" viewBox="0 0 64 64" fill="none" xmlns="http://www.w3.org/2000/svg">
<path d="M23.5518 5.10447C22.2287 3.69518 20.0138 3.62523 18.6045 4.94825C17.1952 6.27126 17.1252 8.48623 18.4482 9.89553L23.5518 5.10447ZM44 32L46.5518 34.3955C47.8161 33.0487 47.8161 30.9513 46.5518 29.6045L44 32ZM18.4482 54.1045C17.1252 55.5138 17.1952 57.7287 18.6045 59.0518C20.0138 60.3748 22.2287 60.3048 23.5518 58.8955L18.4482 54.1045ZM18.4482 9.89553L41.4482 34.3955L46.5518 29.6045L23.5518 5.10447L18.4482 9.89553ZM23.5518 58.8955L46.5518 34.3955L41.4482 29.6045L18.4482 54.1045L23.5518 58.8955Z" fill="black"/>
</svg>
