<svg width="64" height="64" viewBox="0 0 64 64" fill="none" xmlns="http://www.w3.org/2000/svg">
<path d="M20.1305 38.5652C20.995 36.8363 20.2942 34.734 18.5652 33.8695C16.8363 33.005 14.734 33.7058 13.8695 35.4348L20.1305 38.5652ZM6.05855 44.0878C4.4502 45.1601 4.01559 47.3331 5.08782 48.9415C6.16006 50.5498 8.3331 50.9844 9.94145 49.9122L6.05855 44.0878ZM13.8695 35.4348L11.4633 40.2471L17.7243 43.3776L20.1305 38.5652L13.8695 35.4348ZM10.9537 40.8244L6.05855 44.0878L9.94145 49.9122L14.8366 46.6487L10.9537 40.8244ZM11.4633 40.2471C11.3466 40.4806 11.1709 40.6796 10.9537 40.8244L14.8366 46.6487C16.0674 45.8282 17.0628 44.7007 17.7243 43.3776L11.4633 40.2471Z" fill="black"/>
<path d="M9.56525 43.8695C7.83632 43.005 5.73397 43.7058 4.8695 45.4348C4.00504 47.1637 4.70583 49.266 6.43475 50.1305L9.56525 43.8695ZM15.0878 57.9415C16.1601 59.5498 18.3331 59.9844 19.9415 58.9122C21.5498 57.8399 21.9844 55.6669 20.9122 54.0585L15.0878 57.9415ZM6.43475 50.1305L11.2471 52.5367L14.3776 46.2757L9.56525 43.8695L6.43475 50.1305ZM11.8244 53.0463L15.0878 57.9415L20.9122 54.0585L17.6487 49.1634L11.8244 53.0463ZM11.2471 52.5367C11.4806 52.6534 11.6796 52.8291 11.8244 53.0463L17.6487 49.1634C16.8282 47.9326 15.7007 46.9372 14.3776 46.2757L11.2471 52.5367Z" fill="black"/>
<path d="M14.8695 54.4348C14.005 56.1637 14.7058 58.266 16.4348 59.1305C18.1637 59.995 20.266 59.2942 21.1305 57.5652L14.8695 54.4348ZM28.9415 48.9122C30.5498 47.8399 30.9844 45.6669 29.9122 44.0585C28.8399 42.4502 26.6669 42.0156 25.0585 43.0878L28.9415 48.9122ZM21.1305 57.5652L23.5367 52.7529L17.2757 49.6224L14.8695 54.4348L21.1305 57.5652ZM24.0463 52.1756L28.9415 48.9122L25.0585 43.0878L20.1634 46.3513L24.0463 52.1756ZM23.5367 52.7529C23.6534 52.5194 23.8291 52.3204 24.0463 52.1756L20.1634 46.3513C18.9326 47.1718 17.9372 48.2993 17.2757 49.6224L23.5367 52.7529Z" fill="black"/>
<path d="M25.4348 49.1305C27.1637 49.995 29.266 49.2942 30.1305 47.5652C30.995 45.8363 30.2942 43.734 28.5652 42.8695L25.4348 49.1305ZM19.9122 35.0585C18.8399 33.4502 16.6669 33.0156 15.0585 34.0878C13.4502 35.1601 13.0156 37.3331 14.0878 38.9415L19.9122 35.0585ZM28.5652 42.8695L23.7529 40.4633L20.6224 46.7243L25.4348 49.1305L28.5652 42.8695ZM23.1756 39.9537L19.9122 35.0585L14.0878 38.9415L17.3513 43.8366L23.1756 39.9537ZM23.7529 40.4633C23.5194 40.3466 23.3204 40.1709 23.1756 39.9537L17.3513 43.8366C18.1718 45.0674 19.2993 46.0628 20.6224 46.7243L23.7529 40.4633Z" fill="black"/>
<path d="M24.1305 9.56525C24.995 7.83632 24.2942 5.73397 22.5652 4.8695C20.8363 4.00504 18.734 4.70583 17.8695 6.43475L24.1305 9.56525ZM10.0585 15.0878C8.4502 16.1601 8.01559 18.3331 9.08782 19.9415C10.1601 21.5498 12.3331 21.9844 13.9415 20.9122L10.0585 15.0878ZM17.8695 6.43475L15.4633 11.2471L21.7243 14.3776L24.1305 9.56525L17.8695 6.43475ZM14.9537 11.8244L10.0585 15.0878L13.9415 20.9122L18.8366 17.6487L14.9537 11.8244ZM15.4633 11.2471C15.3466 11.4806 15.1709 11.6796 14.9537 11.8244L18.8366 17.6487C20.0674 16.8282 21.0628 15.7007 21.7243 14.3776L15.4633 11.2471Z" fill="black"/>
<path d="M13.5652 14.8695C11.8363 14.005 9.73397 14.7058 8.8695 16.4348C8.00504 18.1637 8.70583 20.266 10.4348 21.1305L13.5652 14.8695ZM19.0878 28.9415C20.1601 30.5498 22.3331 30.9844 23.9415 29.9122C25.5498 28.8399 25.9844 26.6669 24.9122 25.0585L19.0878 28.9415ZM10.4348 21.1305L15.2471 23.5367L18.3776 17.2757L13.5652 14.8695L10.4348 21.1305ZM15.8244 24.0463L19.0878 28.9415L24.9122 25.0585L21.6487 20.1634L15.8244 24.0463ZM15.2471 23.5367C15.4806 23.6534 15.6796 23.8291 15.8244 24.0463L21.6487 20.1634C20.8282 18.9326 19.7007 17.9372 18.3776 17.2757L15.2471 23.5367Z" fill="black"/>
<path d="M18.8695 25.4348C18.005 27.1637 18.7058 29.266 20.4348 30.1305C22.1637 30.995 24.266 30.2942 25.1305 28.5652L18.8695 25.4348ZM32.9415 19.9122C34.5498 18.8399 34.9844 16.6669 33.9122 15.0585C32.8399 13.4502 30.6669 13.0156 29.0585 14.0878L32.9415 19.9122ZM25.1305 28.5652L27.5367 23.7529L21.2757 20.6224L18.8695 25.4348L25.1305 28.5652ZM28.0463 23.1756L32.9415 19.9122L29.0585 14.0878L24.1634 17.3513L28.0463 23.1756ZM27.5367 23.7529C27.6534 23.5194 27.8291 23.3204 28.0463 23.1756L24.1634 17.3513C22.9326 18.1718 21.9372 19.2993 21.2757 20.6224L27.5367 23.7529Z" fill="black"/>
<path d="M29.4348 20.1305C31.1637 20.995 33.266 20.2942 34.1305 18.5652C34.995 16.8363 34.2942 14.734 32.5652 13.8695L29.4348 20.1305ZM23.9122 6.05855C22.8399 4.4502 20.6669 4.01559 19.0585 5.08782C17.4502 6.16006 17.0156 8.3331 18.0878 9.94145L23.9122 6.05855ZM32.5652 13.8695L27.7529 11.4633L24.6224 17.7243L29.4348 20.1305L32.5652 13.8695ZM27.1756 10.9537L23.9122 6.05855L18.0878 9.94145L21.3513 14.8366L27.1756 10.9537ZM27.7529 11.4633C27.5194 11.3466 27.3204 11.1709 27.1756 10.9537L21.3513 14.8366C22.1718 16.0674 23.2993 17.0628 24.6224 17.7243L27.7529 11.4633Z" fill="black"/>
<path d="M46.4989 24.5652C47.3634 22.8363 46.6626 20.734 44.9337 19.8695C43.2047 19.005 41.1024 19.7058 40.2379 21.4348L46.4989 24.5652ZM30.0585 32.7194C28.4502 33.7916 28.0156 35.9647 29.0878 37.573C30.1601 39.1814 32.3331 39.616 33.9415 38.5438L30.0585 32.7194ZM40.2379 21.4348L37.0423 27.8261L43.3033 30.9566L46.4989 24.5652L40.2379 21.4348ZM36.5327 28.4033L30.0585 32.7194L33.9415 38.5438L40.4156 34.2277L36.5327 28.4033ZM37.0423 27.8261C36.9255 28.0595 36.7499 28.2585 36.5327 28.4033L40.4156 34.2277C41.6464 33.4071 42.6417 32.2796 43.3033 30.9566L37.0423 27.8261Z" fill="black"/>
<path d="M33.5652 32.5011C31.8363 31.6366 29.734 32.3374 28.8695 34.0663C28.005 35.7953 28.7058 37.8976 30.4348 38.7621L33.5652 32.5011ZM41.7194 48.9415C42.7916 50.5498 44.9647 50.9844 46.573 49.9122C48.1814 48.8399 48.616 46.6669 47.5438 45.0585L41.7194 48.9415ZM30.4348 38.7621L36.8261 41.9577L39.9566 35.6967L33.5652 32.5011L30.4348 38.7621ZM37.4033 42.4673L41.7194 48.9415L47.5438 45.0585L43.2277 38.5844L37.4033 42.4673ZM36.8261 41.9577C37.0595 42.0745 37.2585 42.2501 37.4033 42.4673L43.2277 38.5844C42.4071 37.3536 41.2796 36.3583 39.9566 35.6967L36.8261 41.9577Z" fill="black"/>
<path d="M41.5011 45.4348C40.6366 47.1637 41.3374 49.266 43.0663 50.1305C44.7953 50.995 46.8976 50.2942 47.7621 48.5652L41.5011 45.4348ZM57.9415 37.2806C59.5498 36.2084 59.9844 34.0353 58.9122 32.427C57.8399 30.8186 55.6669 30.384 54.0585 31.4562L57.9415 37.2806ZM47.7621 48.5652L50.9577 42.1739L44.6967 39.0434L41.5011 45.4348L47.7621 48.5652ZM51.4673 41.5967L57.9415 37.2806L54.0585 31.4562L47.5844 35.7723L51.4673 41.5967ZM50.9577 42.1739C51.0745 41.9405 51.2501 41.7415 51.4673 41.5967L47.5844 35.7723C46.3536 36.5929 45.3583 37.7204 44.6967 39.0434L50.9577 42.1739Z" fill="black"/>
<path d="M54.4348 37.4989C56.1637 38.3634 58.266 37.6626 59.1305 35.9337C59.995 34.2047 59.2942 32.1024 57.5652 31.2379L54.4348 37.4989ZM46.2806 21.0585C45.2084 19.4502 43.0353 19.0156 41.427 20.0878C39.8186 21.1601 39.384 23.3331 40.4562 24.9415L46.2806 21.0585ZM57.5652 31.2379L51.1739 28.0423L48.0434 34.3033L54.4348 37.4989L57.5652 31.2379ZM50.5967 27.5327L46.2806 21.0585L40.4562 24.9415L44.7723 31.4156L50.5967 27.5327ZM51.1739 28.0423C50.9405 27.9255 50.7415 27.7499 50.5967 27.5327L44.7723 31.4156C45.5929 32.6464 46.7204 33.6417 48.0434 34.3033L51.1739 28.0423Z" fill="black"/>
</svg>
