<svg width="64" height="64" viewBox="0 0 64 64" fill="none" xmlns="http://www.w3.org/2000/svg">
<path d="M13.5876 48.8185C12.3388 49.9592 10.3862 49.8803 9.38864 48.5144C7.82942 46.3796 6.57731 44.0304 5.67354 41.5351C4.42138 38.0778 3.86243 34.4078 4.02861 30.7346C4.19479 27.0613 5.08285 23.4568 6.64207 20.1267C8.20129 16.7966 10.4012 13.8063 13.116 11.3264C15.8309 8.84656 19.0077 6.92571 22.4649 5.67354C25.9222 4.42138 29.5922 3.86243 33.2654 4.02861C36.9387 4.19479 40.5433 5.08285 43.8733 6.64207C46.2768 7.76746 48.5033 9.22658 50.4887 10.9722C51.7589 12.089 51.6612 14.0408 50.4124 15.1815C49.1636 16.3222 47.2383 16.2149 45.9345 15.1374C44.5154 13.9647 42.9507 12.9732 41.276 12.1891C38.6744 10.971 35.8584 10.2772 32.9886 10.1474C30.1189 10.0175 27.2517 10.4542 24.5507 11.4325C21.8498 12.4107 19.3679 13.9114 17.2469 15.8488C15.1259 17.7862 13.4073 20.1224 12.1891 22.724C10.971 25.3256 10.2772 28.1416 10.1474 31.0114C10.0175 33.8811 10.4542 36.7483 11.4325 39.4493C12.0622 41.1879 12.9083 42.8357 13.9481 44.3549C14.9034 45.7507 14.8364 47.6778 13.5876 48.8185Z" fill="black"/>
</svg>
