<svg width="64" height="64" viewBox="0 0 64 64" fill="none" xmlns="http://www.w3.org/2000/svg">
<path d="M5.10447 41.4482C3.69518 42.7713 3.62523 44.9862 4.94825 46.3955C6.27126 47.8048 8.48623 47.8748 9.89553 46.5518L5.10447 41.4482ZM32 21L34.3955 18.4482C33.0487 17.1839 30.9513 17.1839 29.6045 18.4482L32 21ZM54.1045 46.5518C55.5138 47.8748 57.7287 47.8048 59.0518 46.3955C60.3748 44.9862 60.3048 42.7713 58.8955 41.4482L54.1045 46.5518ZM9.89553 46.5518L34.3955 23.5518L29.6045 18.4482L5.10447 41.4482L9.89553 46.5518ZM58.8955 41.4482L34.3955 18.4482L29.6045 23.5518L54.1045 46.5518L58.8955 41.4482Z" fill="black"/>
</svg>
