<svg width="64" height="64" viewBox="0 0 64 64" fill="none" xmlns="http://www.w3.org/2000/svg">
<path d="M11 41C11 39.067 9.433 37.5 7.5 37.5C5.567 37.5 4 39.067 4 41H11ZM60 41C60 39.067 58.433 37.5 56.5 37.5C54.567 37.5 53 39.067 53 41H60ZM29 46C29 47.933 30.567 49.5 32.5 49.5C34.433 49.5 36 47.933 36 46H29ZM32.5 10.5L34.8816 7.93522C33.5387 6.68826 31.4613 6.68826 30.1184 7.93522L32.5 10.5ZM44.1184 26.0648C45.5349 27.3801 47.7495 27.2981 49.0648 25.8816C50.3801 24.4651 50.2981 22.2505 48.8816 20.9352L44.1184 26.0648ZM16.1184 20.9352C14.7019 22.2505 14.6199 24.4651 15.9352 25.8816C17.2505 27.2981 19.4651 27.3801 20.8816 26.0648L16.1184 20.9352ZM4 41V51.5H11V41H4ZM12.5 60H51.5V53H12.5V60ZM60 51.5V41H53V51.5H60ZM36 46V10.5H29V46H36ZM30.1184 13.0648L44.1184 26.0648L48.8816 20.9352L34.8816 7.93522L30.1184 13.0648ZM30.1184 7.93522L16.1184 20.9352L20.8816 26.0648L34.8816 13.0648L30.1184 7.93522ZM51.5 60C56.1944 60 60 56.1944 60 51.5H53C53 52.3284 52.3284 53 51.5 53V60ZM4 51.5C4 56.1944 7.80558 60 12.5 60V53C11.6716 53 11 52.3284 11 51.5H4Z" fill="black"/>
</svg>
