<svg width="64" height="64" viewBox="0 0 64 64" fill="none" xmlns="http://www.w3.org/2000/svg">
<path d="M32.5 24C34.433 24 36 25.567 36 27.5V38.5C36 40.433 34.433 42 32.5 42C30.567 42 29 40.433 29 38.5V27.5C29 25.567 30.567 24 32.5 24Z" fill="black"/>
<path d="M36 47.5C36 49.433 34.433 51 32.5 51C30.567 51 29 49.433 29 47.5C29 45.567 30.567 44 32.5 44C34.433 44 36 45.567 36 47.5Z" fill="black"/>
<path d="M36.4997 6.65539C34.8498 3.38922 30.1986 3.35322 28.4984 6.5935L4.70169 51.9445C2.78004 55.6067 5.43613 60 9.57193 60H54.5066C58.6051 60 61.2638 55.6783 59.4158 52.0201L36.4997 6.65539ZM12.053 53L32.4409 14.1454L52.0684 53H12.053Z" fill="black"/>
</svg>
